<svg width="21" height="23" viewBox="0 0 21 23" fill="none" xmlns="http://www.w3.org/2000/svg">
<path d="M1.875 5.74999H3.79167M3.79167 5.74999H19.125M3.79167 5.74999V19.1667C3.79167 19.675 3.9936 20.1625 4.35305 20.5219C4.71249 20.8814 5.2 21.0833 5.70833 21.0833H15.2917C15.8 21.0833 16.2875 20.8814 16.647 20.5219C17.0064 20.1625 17.2083 19.675 17.2083 19.1667V5.74999M6.66667 5.74999V3.83332C6.66667 3.32499 6.8686 2.83748 7.22805 2.47804C7.58749 2.11859 8.075 1.91666 8.58333 1.91666H12.4167C12.925 1.91666 13.4125 2.11859 13.772 2.47804C14.1314 2.83748 14.3333 3.32499 14.3333 3.83332V5.74999M8.58333 10.5417V16.2917M12.4167 10.5417V16.2917" stroke="#655151" stroke-width="2" stroke-linecap="round" stroke-linejoin="round"/>
</svg>
